<svg width="20" height="20" viewBox="0 0 20 20" fill="none" xmlns="http://www.w3.org/2000/svg">
<path d="M3.5498 9.18286V13.3245C3.5498 14.8412 3.5498 14.8412 4.98314 15.8079L8.9248 18.0829C9.51647 18.4245 10.4831 18.4245 11.0748 18.0829L15.0165 15.8079C16.4498 14.8412 16.4498 14.8412 16.4498 13.3245V9.18286C16.4498 7.66619 16.4498 7.66619 15.0165 6.69952L11.0748 4.42452C10.4831 4.08286 9.51647 4.08286 8.9248 4.42452L4.98314 6.69952C3.5498 7.66619 3.5498 7.66619 3.5498 9.18286Z" stroke="#636363" stroke-width="1.5" stroke-linecap="round" stroke-linejoin="round"/>
<path d="M14.5837 6.35835V4.16669C14.5837 2.50002 13.7503 1.66669 12.0837 1.66669H7.91699C6.25033 1.66669 5.41699 2.50002 5.41699 4.16669V6.30002" stroke="#636363" stroke-width="1.5" stroke-linecap="round" stroke-linejoin="round"/>
<path d="M10.5245 9.15909L10.9995 9.90076C11.0745 10.0174 11.2412 10.1341 11.3662 10.1674L12.2162 10.3841C12.7412 10.5174 12.8828 10.9674 12.5412 11.3841L11.9828 12.0591C11.8995 12.1674 11.8328 12.3591 11.8412 12.4924L11.8912 13.3674C11.9245 13.9091 11.5412 14.1841 11.0412 13.9841L10.2245 13.6591C10.0995 13.6091 9.89116 13.6091 9.76616 13.6591L8.94949 13.9841C8.44949 14.1841 8.06616 13.9008 8.09949 13.3674L8.14949 12.4924C8.15782 12.3591 8.09116 12.1591 8.00782 12.0591L7.44949 11.3841C7.10782 10.9674 7.24949 10.5174 7.77449 10.3841L8.62449 10.1674C8.75783 10.1341 8.92449 10.0091 8.99116 9.90076L9.46616 9.15909C9.76616 8.70909 10.2328 8.70909 10.5245 9.15909Z" stroke="#636363" stroke-width="1.5" stroke-linecap="round" stroke-linejoin="round"/>
</svg>
